<svg xmlns="http://www.w3.org/2000/svg" viewBox="0 0 500 500"><g id="freepik--background-complete--inject-156"><g><g><g><path d="M443.92,330.198h-180.746c-3.232,0-5.862-2.63-5.862-5.862V61.062c0-3.232,2.63-5.862,5.862-5.862h180.746c3.232,0,5.862,2.629,5.862,5.862V324.335c0,3.233-2.63,5.862-5.862,5.862ZM263.174,55.45c-3.095,0-5.612,2.518-5.612,5.612V324.335c0,3.095,2.518,5.612,5.612,5.612h180.746c3.095,0,5.612-2.517,5.612-5.612V61.062c0-3.094-2.518-5.612-5.612-5.612h-180.746Z" style="fill:#e0e0e0;"></path><path d="M235.493,330.198H54.746c-3.232,0-5.862-2.63-5.862-5.862V61.062c0-3.232,2.629-5.862,5.862-5.862H235.493c3.232,0,5.862,2.629,5.862,5.862V324.335c0,3.233-2.63,5.862-5.862,5.862ZM54.746,55.45c-3.094,0-5.612,2.518-5.612,5.612V324.335c0,3.095,2.518,5.612,5.612,5.612H235.493c3.095,0,5.612-2.517,5.612-5.612V61.062c0-3.094-2.518-5.612-5.612-5.612H54.746Z" style="fill:#e0e0e0;"></path></g><rect x="0" y="391.267" width="500" height=".25" style="fill:#e0e0e0;"></rect></g><rect x="51.672" y="405.531" width="16.06" height=".25" style="fill:#e0e0e0;"></rect><rect x="170.352" y="402.821" width="53.53" height=".25" style="fill:#e0e0e0;"></rect><rect x="68.732" y="414.821" width="36.25" height=".25" style="fill:#e0e0e0;"></rect><rect x="378.352" y="402.691" width="43.19" height=".25" style="fill:#e0e0e0;"></rect><rect x="430.452" y="402.691" width="6.33" height=".25" style="fill:#e0e0e0;"></rect><rect x="316.212" y="408.921" width="53.89" height=".25" style="fill:#e0e0e0;"></rect></g><path d="M138.785,223.293c-1.102-5.316-3.209-10.258-6.09-14.648l5.245-6.335-11.213-11.214-6.336,5.244c-4.389-2.88-9.332-4.987-14.647-6.089l-.769-8.166h-15.858l-.769,8.166c-5.315,1.102-10.258,3.209-14.647,6.089l-6.335-5.244-11.214,11.214,5.245,6.336c-2.881,4.389-4.987,9.331-6.09,14.647l-8.166,.77v15.857l8.166,.77c1.103,5.315,3.209,10.257,6.09,14.647l-5.245,6.335,11.214,11.214,6.335-5.246c4.389,2.882,9.332,4.988,14.647,6.09l.769,8.166h15.858l.769-8.165c5.315-1.102,10.258-3.209,14.647-6.091l6.336,5.246,11.213-11.214-5.245-6.335c2.881-4.39,4.988-9.332,6.09-14.647l8.165-.77v-15.857l-8.165-.77Zm-20.271,8.698c0,11.856-9.611,21.468-21.468,21.468s-21.468-9.612-21.468-21.468,9.611-21.468,21.468-21.468,21.468,9.611,21.468,21.468Z" style="fill:#f0f0f0;"></path><path d="M320.334,295.057c-.828-3.995-2.411-7.71-4.576-11.008l3.942-4.761-8.427-8.428-4.762,3.941c-3.299-2.164-7.013-3.748-11.008-4.576l-.578-6.137h-11.918l-.578,6.137c-3.995,.828-7.709,2.412-11.008,4.576l-4.761-3.941-8.427,8.428,3.941,4.761c-2.165,3.299-3.748,7.013-4.577,11.008l-6.137,.579v11.917l6.137,.579c.829,3.995,2.412,7.709,4.577,11.008l-3.941,4.761,8.427,8.428,4.761-3.942c3.298,2.166,7.013,3.748,11.008,4.577l.578,6.137h11.918l.578-6.136c3.995-.828,7.709-2.412,11.008-4.577l4.762,3.942,8.427-8.428-3.942-4.761c2.165-3.3,3.748-7.013,4.576-11.008l6.137-.579v-11.917l-6.137-.579Zm-15.235,6.537c0,8.91-7.223,16.134-16.134,16.134s-16.134-7.224-16.134-16.134,7.223-16.134,16.134-16.134,16.134,7.224,16.134,16.134Z" style="fill:#f0f0f0;"></path><path d="M209.046,349.767c-.595-2.87-1.732-5.538-3.287-7.907l2.831-3.42-6.053-6.053-3.42,2.831c-2.37-1.555-5.038-2.692-7.907-3.287l-.415-4.408h-8.561l-.415,4.408c-2.869,.595-5.538,1.733-7.907,3.287l-3.42-2.831-6.053,6.053,2.831,3.42c-1.555,2.369-2.692,5.037-3.287,7.907l-4.408,.416v8.56l4.408,.416c.595,2.869,1.732,5.537,3.287,7.907l-2.831,3.42,6.053,6.053,3.42-2.832c2.369,1.556,5.037,2.692,7.907,3.288l.415,4.408h8.561l.415-4.408c2.869-.595,5.537-1.732,7.907-3.288l3.42,2.832,6.053-6.053-2.831-3.42c1.555-2.37,2.692-5.038,3.287-7.907l4.408-.416v-8.56l-4.408-.416Zm-10.943,4.695c0,6.4-5.189,11.589-11.589,11.589s-11.589-5.189-11.589-11.589,5.188-11.589,11.589-11.589,11.589,5.189,11.589,11.589Z" style="fill:#f0f0f0;"></path><path d="M429.77,101.654c-.66-3.187-1.923-6.149-3.65-8.78l3.144-3.797-6.721-6.722-3.798,3.144c-2.631-1.726-5.594-2.989-8.78-3.65l-.461-4.895h-9.506l-.461,4.895c-3.186,.661-6.149,1.924-8.78,3.65l-3.798-3.144-6.722,6.722,3.144,3.798c-1.727,2.631-2.989,5.593-3.65,8.78l-4.895,.462v9.505l4.895,.461c.661,3.186,1.923,6.148,3.65,8.78l-3.144,3.798,6.722,6.722,3.798-3.144c2.631,1.727,5.594,2.99,8.78,3.65l.461,4.895h9.506l.461-4.894c3.186-.66,6.149-1.923,8.78-3.651l3.798,3.144,6.721-6.722-3.144-3.797c1.727-2.632,2.99-5.594,3.65-8.78l4.894-.461v-9.505l-4.894-.462Zm-12.151,5.214c0,7.107-5.761,12.868-12.868,12.868s-12.868-5.762-12.868-12.868,5.761-12.868,12.868-12.868,12.868,5.761,12.868,12.868Z" style="fill:#f0f0f0;"></path><path d="M74.359,309.477c-.399-1.924-1.161-3.713-2.204-5.302l1.898-2.293-4.058-4.059-2.293,1.898c-1.589-1.042-3.377-1.805-5.301-2.204l-.278-2.956h-5.74l-.279,2.956c-1.924,.399-3.713,1.162-5.301,2.204l-2.293-1.898-4.059,4.059,1.898,2.293c-1.043,1.588-1.805,3.377-2.204,5.301l-2.956,.279v5.739l2.956,.279c.399,1.924,1.161,3.712,2.204,5.301l-1.898,2.293,4.059,4.059,2.293-1.899c1.588,1.043,3.377,1.805,5.301,2.204l.279,2.956h5.74l.278-2.955c1.924-.399,3.713-1.161,5.301-2.204l2.293,1.899,4.058-4.059-1.898-2.293c1.043-1.589,1.805-3.378,2.204-5.301l2.955-.279v-5.739l-2.955-.279Zm-7.337,3.148c0,4.291-3.479,7.77-7.77,7.77s-7.77-3.479-7.77-7.77,3.479-7.77,7.77-7.77,7.77,3.479,7.77,7.77Z" style="fill:#f0f0f0;"></path><g><rect x="192.458" y="158.384" width="43.091" height="30.276" style="fill:#f0f0f0;"></rect><path d="M213.781,178.664l-21.09-19.544c-.203-.188-.214-.504-.027-.707,.187-.204,.504-.215,.707-.027l20.419,18.923,20.703-18.67c.205-.186,.521-.169,.706,.036s.169,.521-.036,.706l-21.381,19.283Z" style="fill:#e6e6e6;"></path><path d="M193,188.618c-.119,0-.237-.042-.333-.126-.206-.184-.225-.5-.041-.706l14.26-16.016c.185-.207,.5-.225,.706-.041s.225,.5,.041,.706l-14.26,16.016c-.099,.111-.236,.167-.374,.167Z" style="fill:#e6e6e6;"></path><path d="M235.113,188.618c-.138,0-.274-.057-.374-.167l-14.26-16.016c-.184-.206-.165-.522,.041-.706,.206-.184,.521-.166,.706,.041l14.26,16.016c.184,.206,.165,.522-.041,.706-.095,.085-.214,.126-.333,.126Z" style="fill:#e6e6e6;"></path></g><g><rect x="356.696" y="324.531" width="73.053" height="51.327" transform="translate(-43.943 56.688) rotate(-7.811)" style="fill:#f0f0f0;"></rect><path d="M393.973,358.416l-39.665-27.786c-.226-.158-.281-.47-.122-.696,.157-.227,.469-.28,.696-.122l38.915,27.261,30.676-36.37c.179-.211,.495-.235,.704-.06,.211,.178,.238,.493,.06,.704l-31.264,37.069Z" style="fill:#e6e6e6;"></path><path d="M361.309,380.049c-.097,0-.193-.027-.278-.085-.229-.153-.291-.465-.137-.693l20.261-30.186c.155-.231,.468-.289,.693-.137,.229,.153,.291,.465,.137,.693l-20.261,30.186c-.097,.145-.255,.222-.415,.222Z" style="fill:#e6e6e6;"></path><path d="M432.04,370.346c-.115,0-.23-.039-.325-.12l-27.641-23.614c-.21-.179-.234-.495-.055-.705,.18-.209,.495-.234,.705-.055l27.641,23.614c.21,.179,.234,.495,.055,.705-.099,.115-.239,.175-.38,.175Z" style="fill:#e6e6e6;"></path></g><g><circle cx="211.844" cy="85.111" r="46.688" style="fill:#e0e0e0;"></circle><circle cx="211.844" cy="85.111" r="37.637" style="fill:#fff;"></circle><circle cx="211.844" cy="85.111" r="26.332" style="fill:#f0f0f0;"></circle><circle cx="211.844" cy="85.111" r="16.666" transform="translate(1.865 174.725) rotate(-45)" style="fill:#e0e0e0;"></circle><circle cx="211.844" cy="84.973" r="6.573" style="fill:#f0f0f0;"></circle><path d="M259.537,59.372l.359-1.836c.265-1.355,1.114-2.525,2.321-3.196l6.307-3.507-1.981,4.835-7.006,3.703Z" style="fill:#ebebeb;"></path><path d="M259.537,59.104l1.662,.858c1.227,.633,2.671,.693,3.946,.163l6.664-2.77-5.021-1.447-7.252,3.197Z" style="fill:#ebebeb;"></path><rect x="208.149" y="69.177" width="63.779" height=".999" transform="translate(-4.755 120.172) rotate(-27.842)" style="fill:#e0e0e0;"></rect></g></g><g id="freepik--Shadow--inject-156"><path d="M458.875,448.394c0,3.387-93.517,6.132-208.875,6.132s-208.875-2.745-208.875-6.132,93.516-6.132,208.875-6.132,208.875,2.746,208.875,6.132Z" style="fill:#f5f5f5;"></path></g><g id="freepik--Plant--inject-156"><g><g><g><path d="M344.124,427.857c-.014-.446-1.514-44.705-8.713-51.705-7.002-6.807-15.038-.253-15.376,.029l-.722-.865c.091-.077,9.16-7.48,16.884,.029,7.522,7.315,8.994,50.637,9.053,52.478l-1.126,.035Z" style="fill:#263238;"></path><path d="M344.742,436.555c-.052-.529-4.92-53.133,14.291-75.181l.849,.739c-18.893,21.682-14.069,73.808-14.019,74.331l-1.121,.11Z" style="fill:#263238;"></path><path d="M344.031,430.991l-1.125-.075c.039-.596,3.76-59.804-10.332-72.764l.762-.83c14.487,13.325,10.855,71.211,10.694,73.669Z" style="fill:#263238;"></path><path d="M345.866,430.958l-1.127-.009c.014-1.631,.465-39.992,11.362-46.236,2.422-1.39,4.794-1.621,7.051-.688,6.589,2.726,9.854,14.452,9.99,14.95l-1.087,.297c-.032-.117-3.256-11.692-9.335-14.206-1.916-.791-3.954-.582-6.058,.624-10.34,5.925-10.792,44.875-10.795,45.268Z" style="fill:#263238;"></path><path d="M341.622,430.986l-1.124-.064c.017-.303,1.644-30.315-6.456-40.889-1.962-2.562-4.093-3.783-6.344-3.625-5.307,.371-9.757,8.137-9.801,8.215l-.981-.555c.193-.341,4.791-8.37,10.703-8.784,2.645-.188,5.11,1.182,7.318,4.065,8.354,10.906,6.758,40.388,6.685,41.637Z" style="fill:#263238;"></path><path d="M343.398,435.068c-.221-2.912-5.295-71.439,3.633-83.514l.905,.669c-8.681,11.742-3.469,82.05-3.415,82.759l-1.123,.086Z" style="fill:#263238;"></path></g><path d="M367.195,387.809s-5.698,2.106-3.764,6.636c5.45,12.766,18.441,14.126,18.441,14.126,0,0,6.096-9.65,1.099-17.145-6.889-10.333-15.632-6.953-15.777-3.617Z" style="fill:#0D3B66;"></path><path d="M342.295,382.096s5.703-.239,6.028,4.677c.324,4.915-12.356,18.514-12.356,18.514,0,0-9.049-3.271-7.105-15.538,1.944-12.266,12.016-10.677,13.434-7.653Z" style="fill:#0D3B66;"></path><path d="M345.06,353.451s-2.395-.295-3.296-2.45c-2.687-6.43,6.547-13.364,18.894-9.701,0,0,.327,10.865-6.317,15.15-6.644,4.285-9.281-2.999-9.281-2.999Z" style="fill:#0D3B66;"></path><path d="M323.901,387.145s1.987-2.725-1.016-2.992c-3.003-.267-16.004,5.559-12.585,18.894,0,0,16.722-5.454,17.302-11.038,.58-5.583-3.7-4.864-3.7-4.864Z" style="fill:#0D3B66;"></path><path d="M359.553,358.222s.751-2.475,3.583-3.509c2.832-1.034,13.353-.385,13.498,13.381,0,0-16.185,2.69-18.189-2.554-2.003-5.243,1.107-7.318,1.107-7.318Z" style="fill:#0D3B66;"></path><path d="M350.816,369.661s1.088-1.887,3.168-.877c2.079,1.009,8.21,7.318,2.364,14.933,0,0-10.863-6.532-9.975-11.116,.818-4.225,4.444-2.94,4.444-2.94Z" style="fill:#0D3B66;"></path><path d="M324.202,372.981s1.569-2.056-.729-2.311c-2.298-.255-12.594,2.494-10.196,12.772,0,0,12.544-.943,13.081-5.213,.538-4.27-2.157-5.249-2.157-5.249Z" style="fill:#0D3B66;"></path><path d="M334.846,401.007c-.123,0-.23-.09-.248-.215-.898-6.401,2.127-13.989,7.529-18.881,.103-.093,.26-.086,.354,.018,.093,.103,.085,.261-.018,.354-5.285,4.785-8.247,12.195-7.369,18.439,.019,.137-.076,.264-.213,.283-.012,0-.023,.002-.035,.002Z" style="opacity:.3;"></path><path d="M355.929,379.81c-.117,0-.222-.082-.245-.201-.703-3.524-2.494-6.861-5.043-9.394-.099-.098-.099-.256-.002-.354,.097-.099,.255-.099,.354-.002,2.619,2.603,4.46,6.03,5.182,9.651,.027,.136-.061,.267-.196,.294-.017,.003-.033,.005-.049,.005Z" style="opacity:.3;"></path><path d="M379.714,400.305c-.093,0-.182-.052-.225-.141-2.5-5.134-7.365-9.894-12.396-12.127-.126-.056-.183-.204-.127-.33s.204-.184,.33-.127c5.131,2.278,10.094,7.132,12.642,12.365,.061,.124,.009,.273-.115,.334-.035,.018-.072,.025-.109,.025Z" style="opacity:.3;"></path><path d="M373.613,364.725c-.083,0-.164-.041-.212-.116-1.462-2.317-3.676-4.131-6.235-5.107-2.717-1.036-5-1.769-7.544-1.039-.139,.038-.272-.039-.31-.171-.038-.133,.039-.271,.171-.31,2.699-.774,5.057-.017,7.86,1.053,2.66,1.014,4.962,2.898,6.481,5.307,.073,.117,.038,.271-.078,.346-.042,.025-.088,.038-.134,.038Z" style="opacity:.3;"></path><path d="M336.851,360.541s3.798,.453,4.018-1.872c.22-2.326-12.554-11.377-23.036-3.894,0,0,3.227,10.38,10.904,12.269,7.677,1.89,8.114-6.503,8.114-6.503Z" style="fill:#0D3B66;"></path><path d="M336.733,360.98c-.076,0-.151-.035-.2-.101-3.821-5.138-13.514-7.022-16.85-5.816-.131,.044-.272-.021-.32-.15-.047-.13,.021-.273,.15-.32,3.408-1.23,13.329,.489,17.42,5.988,.083,.111,.06,.268-.051,.35-.045,.034-.098,.05-.149,.05Z" style="opacity:.3;"></path><path d="M315.769,379.687c-.045,0-.09-.012-.13-.036-.118-.072-.155-.226-.084-.344,2.159-3.544,6.361-5.515,8.675-6.374,.125-.049,.273,.018,.321,.147,.048,.129-.018,.273-.147,.321-2.252,.837-6.341,2.751-8.421,6.165-.048,.077-.13,.12-.214,.12Z" style="opacity:.3;"></path><path d="M312.087,398.235c-.039,0-.079-.009-.115-.028-.123-.063-.17-.215-.106-.337,2.594-4.974,6.863-8.92,12.024-11.114,.126-.05,.273,.005,.328,.133,.054,.127-.006,.273-.133,.328-4.98,2.117-9.273,6.084-11.776,10.884-.045,.086-.132,.135-.222,.135Z" style="opacity:.3;"></path><path d="M345.562,353.441c-.036,0-.071-.008-.106-.023-.125-.059-.179-.208-.12-.333,2.056-4.388,6.04-7.882,10.659-9.347,.128-.039,.271,.032,.313,.163s-.031,.271-.163,.313c-4.487,1.424-8.359,4.818-10.356,9.083-.043,.091-.133,.144-.227,.144Z" style="opacity:.3;"></path></g><g><polygon points="359.076 446.795 328.416 446.795 325.109 418.615 362.383 418.615 359.076 446.795" style="fill:#263238;"></polygon><rect x="319.953" y="414.269" width="47.586" height="8.693" style="fill:#263238;"></rect><polygon points="325.562 422.961 326.156 428.657 361.336 428.657 361.931 422.955 325.562 422.961" style="opacity:.3;"></polygon></g></g></g><g id="freepik--Speech_Bubble--inject-156"><g><path d="M192.521,99.618H78.034c-1.136,0-2.057,.921-2.057,2.057v44.751c0,1.136,.921,2.057,2.057,2.057h34.916c2.762,2.937,12.254,12.474,12.254,12.474v-12.474h67.316c1.136,0,2.057-.921,2.057-2.057v-44.751c0-1.136-.921-2.057-2.057-2.057Z" style="fill:#0D3B66;"></path><path d="M192.521,99.618H78.034c-1.136,0-2.057,.921-2.057,2.057v44.751c0,1.136,.921,2.057,2.057,2.057h34.916c2.762,2.937,12.254,12.474,12.254,12.474v-12.474h67.316c1.136,0,2.057-.921,2.057-2.057v-44.751c0-1.136-.921-2.057-2.057-2.057Z" style="fill:#fff; opacity:.6;"></path><g><path d="M103.129,128.339c0,3.118-2.633,4.933-7.565,4.933h-10.07v-17.891h9.559c4.933,0,7.233,1.968,7.233,4.677,0,1.662-.843,3.041-2.479,3.859,2.096,.767,3.323,2.3,3.323,4.422Zm-11.706-8.741v2.658h2.812c1.354,0,1.968-.46,1.968-1.329s-.614-1.329-1.968-1.329h-2.812Zm5.623,8.051c0-.92-.665-1.406-1.994-1.406h-3.629v2.811h3.629c1.329,0,1.994-.485,1.994-1.406Z" style="fill:#0D3B66;"></path><path d="M112.919,128.773h-1.636v4.498h-6.032v-17.891h8.613c4.984,0,8.153,2.607,8.153,6.748,0,2.582-1.226,4.524-3.373,5.623l3.757,5.521h-6.44l-3.041-4.498Zm.562-8.741h-2.198v4.191h2.198c1.662,0,2.454-.792,2.454-2.096s-.792-2.096-2.454-2.096Z" style="fill:#0D3B66;"></path><path d="M136.484,130.153h-6.799l-1.201,3.118h-6.134l7.821-17.891h5.929l7.821,17.891h-6.236l-1.201-3.118Zm-1.662-4.345l-1.738-4.498-1.738,4.498h3.476Z" style="fill:#0D3B66;"></path><path d="M162.529,115.38v17.891h-4.958l-6.798-8.127v8.127h-5.878v-17.891h4.958l6.799,8.128v-8.128h5.878Z" style="fill:#0D3B66;"></path><path d="M165.444,115.38h8.817c5.981,0,10.096,3.399,10.096,8.946s-4.115,8.945-10.096,8.945h-8.817v-17.891Zm8.562,13.188c2.53,0,4.268-1.508,4.268-4.243s-1.738-4.243-4.268-4.243h-2.53v8.485h2.53Z" style="fill:#0D3B66;"></path></g><path d="M171.388,96.605h-35.104c-.207,0-.375-.168-.375-.375s.168-.375,.375-.375h35.104c.207,0,.375,.168,.375,.375s-.168,.375-.375,.375Z" style="fill:#0D3B66;"></path><path d="M180.01,96.605h-3.724c-.207,0-.375-.168-.375-.375s.168-.375,.375-.375h3.724c.207,0,.375,.168,.375,.375s-.168,.375-.375,.375Z" style="fill:#0D3B66;"></path></g></g><g id="freepik--Megaphone--inject-156"><g><g><path d="M190.847,244.076c-7.581,5.798-12.003,14.883-11.649,24.42,.235,6.331,2.229,13.999,7.616,22.825,16.596,27.19,37.038,12.849,52.26,7.495,16.092-5.661,33.292-13.488,45.556-20.102,5.386-2.904,4.125-5.179,4.125-5.179,0,0-36.692-65.25-41.618-67.311-4.023-1.683-42.369,27.206-56.291,37.852Z" style="fill:#0D3B66;"></path><path d="M216.967,299.963c-.078,1.079,21.851,72.82,29.197,76.244,7.346,3.425,29.733-4.719,30.613-10.079,.88-5.361-17.911-80.49-17.911-80.49l-41.899,14.325Z" style="fill:#0D3B66;"></path><path d="M284.442,277.353c22.809-8.85,46.421-1.057,46.421-1.057-14.544-11.907-23.725-29.58-36.062-50.407-17.439-29.44-21.09-63.523-21.537-63.511-.048,22.522-26.127,43.845-26.127,43.845,0,0-18.174,17.353,.888,48.194,19.062,30.84,36.417,22.935,36.417,22.935Z" style="fill:#0D3B66;"></path><path d="M284.442,277.353c22.809-8.85,46.421-1.057,46.421-1.057-14.544-11.907-23.725-29.58-36.062-50.407-17.439-29.44-21.09-63.523-21.537-63.511-.048,22.522-26.127,43.845-26.127,43.845,0,0-18.174,17.353,.888,48.194,19.062,30.84,36.417,22.935,36.417,22.935Z" style="fill:#fff; opacity:.8;"></path><polygon points="260.082 290.53 231.759 301.721 261.735 297.27 260.082 290.53" style="opacity:.3;"></polygon><path d="M253.023,308.362l6.68,20.648s4.704-.3,10.848-2.384l4.708-2.339-1.458-4.338s-8.356-2.512-11.573-13.281l-9.206,1.695Z" style="fill:#263238;"></path><path d="M270.552,326.625l-1.931-5.293s-8.609-1.047-11.712-13.686l-3.886,.716,6.68,20.648s6.077-.662,10.848-2.384Z" style="opacity:.3;"></path></g><g><ellipse cx="360.498" cy="190.962" rx="76.662" ry="120.093" transform="translate(-47.442 187.751) rotate(-27.46)" style="fill:#0D3B66;"></ellipse><ellipse cx="360.498" cy="190.962" rx="76.662" ry="120.093" transform="translate(-47.442 187.751) rotate(-27.46)" style="fill:#fff; opacity:.5;"></ellipse><path d="M436.679,173.537c3.887,10.626,16.949,56.155-34.397,79.059-58.37,26.036-128.216-104.766-128.216-104.766l-1.27,1.687c-.312,23.691,6.117,50.703,19.677,76.797,30.585,58.853,85.834,90.735,123.403,71.211,33.775-17.552,41.755-70.675,20.803-123.987Z" style="opacity:.1;"></path><path d="M283.431,202.548l50.462-17.016,16.731,34.803-42.594,30.51s-15.21-15.22-24.599-48.296Z" style="fill:#0D3B66;"></path><g><path d="M352.77,197.912c4.765,9.831,3.036,20.512-3.864,23.856-6.899,3.344-16.355-1.914-21.121-11.745-4.765-9.831-3.036-20.512,3.864-23.856,6.899-3.344,16.356,1.914,21.121,11.745Z" style="fill:#0D3B66;"></path><path d="M352.77,197.912c4.765,9.831,3.036,20.512-3.864,23.856-6.899,3.344-16.355-1.914-21.121-11.745-4.765-9.831-3.036-20.512,3.864-23.856,6.899-3.344,16.356,1.914,21.121,11.745Z" style="fill:#fff; opacity:.2;"></path></g><path d="M393.354,304.079c-34.665,0-75.512-30.323-100.318-78.058-14.921-28.711-21.908-59.387-19.676-86.376,2.254-27.243,13.624-47.51,32.016-57.068,37.723-19.602,93.562,12.85,124.479,72.342,30.917,59.493,25.381,123.842-12.34,143.444-7.455,3.874-15.623,5.716-24.161,5.716Zm-63.677-224.258c-8.109,0-15.852,1.745-22.919,5.418-17.443,9.065-28.243,28.474-30.408,54.653-2.188,26.433,4.684,56.529,19.348,84.745,30.153,58.024,84.179,89.905,120.435,71.064,36.25-18.839,41.208-81.377,11.061-139.398h0c-24.276-46.713-64.025-76.482-97.516-76.482Z" style="fill:#263238;"></path></g><path d="M396.752,98.585c13.712,11.252,25.211,25.104,33.729,40.665,2.418,4.418,4.593,8.967,6.512,13.623,.363,.88,1.815,.495,1.446-.399-6.832-16.579-16.818-31.788-29.349-44.62-3.565-3.65-7.334-7.094-11.278-10.33-.74-.608-1.808,.448-1.061,1.061h0Z" style="fill:#0D3B66;"></path><path d="M441.022,161.797c.775,1.965,1.549,3.93,2.324,5.895,.148,.377,.502,.639,.923,.524,.359-.099,.673-.544,.524-.923-.775-1.965-1.549-3.93-2.324-5.895-.148-.377-.502-.639-.923-.524-.359,.099-.673,.544-.524,.923h0Z" style="fill:#0D3B66;"></path></g></g><g id="freepik--Character--inject-156"><g><g><polygon points="144.026 427.325 145.273 440.395 155.103 441.471 156.1 427.415 144.026 427.325" style="fill:#b97964;"></polygon><g><path d="M143.144,438.309c-.02-.516,.429-.926,.935-.906l2.988,.115c.755,.011,1.525,1.415,1.963,2.043,1.889,2.707,3.348,1.714,5.475-.777,1.333-.14,1.67,1.422,1.773,1.843l2.371,9.289c.206,.776-.243,1.575-1.004,1.786-.135,.037-.275,.054-.415,.05-4.052-.056-5.97-.083-11.014-.153l-15.426-.214c-4.205-.058-5.019-4.392-3.281-4.768,7.813-1.647,13.36-3.908,15.798-6.185,.34-.3-.127-1.176-.164-2.122Z" style="fill:#263238;"></path><path d="M144.511,443.328c-.085,0-.167-.043-.214-.122-.569-.95-1.553-1.617-2.632-1.782-.136-.021-.23-.148-.209-.285,.021-.136,.147-.229,.285-.209,1.224,.188,2.34,.942,2.985,2.021,.071,.118,.033,.271-.086,.343-.04,.023-.084,.035-.128,.035Z" style="fill:#fff;"></path><path d="M142.296,444.615c-.085,0-.167-.043-.214-.122-.569-.95-1.553-1.616-2.633-1.781-.136-.021-.23-.148-.209-.285,.021-.136,.145-.23,.285-.209,1.225,.188,2.341,.942,2.985,2.02,.071,.118,.033,.271-.086,.343-.04,.023-.084,.035-.128,.035Z" style="fill:#fff;"></path><path d="M139.57,445.913c-.085,0-.167-.043-.214-.121-.569-.951-1.554-1.617-2.633-1.782-.136-.021-.23-.148-.209-.285,.021-.136,.149-.227,.285-.209,1.224,.188,2.34,.942,2.985,2.019,.071,.119,.033,.272-.086,.344-.04,.023-.084,.035-.128,.035Z" style="fill:#fff;"></path></g></g><g><polygon points="167.357 422.005 178.512 428.931 185.323 421.761 174.744 412.453 167.357 422.005" style="fill:#b97964;"></polygon><g><path d="M175.562,429.361c-.423-.296-.477-.902-.155-1.293l1.902-2.308c.466-.595,2.05-.356,2.815-.324,3.298,.137,3.392-1.626,2.699-4.827,.696-1.145,2.144-.467,2.54-.295l8.827,3.741c.742,.306,1.106,1.148,.812,1.881-.052,.13-.123,.252-.212,.361-2.5,3.19-3.682,4.7-6.794,8.67l-9.515,12.143c-2.594,3.31-6.535,1.332-5.781-.278,3.422-7.214,4.984-12.996,4.649-16.316-.032-.452-1.012-.612-1.787-1.155Z" style="fill:#263238;"></path><path d="M176.971,432.495c-.065,0-.131-.025-.18-.076-.096-.1-.093-.258,.006-.354,.891-.861,2.168-1.293,3.416-1.151,.137,.015,.236,.139,.221,.275s-.145,.23-.276,.221c-1.103-.118-2.228,.257-3.012,1.015-.049,.047-.111,.07-.174,.07Z" style="fill:#fff;"></path><path d="M176.653,435.038c-.065,0-.131-.025-.18-.076-.096-.1-.093-.258,.006-.354,.891-.861,2.168-1.297,3.416-1.152,.137,.015,.236,.139,.221,.275-.016,.137-.147,.235-.276,.221-1.101-.115-2.227,.258-3.013,1.016-.049,.047-.111,.07-.174,.07Z" style="fill:#fff;"></path><path d="M176.034,437.993c-.065,0-.131-.025-.18-.076-.096-.1-.093-.258,.006-.354,.892-.861,2.171-1.296,3.416-1.152,.137,.015,.236,.139,.221,.275-.016,.138-.146,.23-.276,.221-1.098-.121-2.228,.257-3.013,1.016-.049,.047-.111,.07-.174,.07Z" style="fill:#fff;"></path></g></g><g><path d="M182.716,414.789s-6.896-8.433-15.65-19.177c19.205-102.419,.565-130.349,.565-130.349l-.073-.002c.002-.052,.003-.115-.059-.159-4.279-10.263-34.391-3.633-34.391-3.633-1.219,4.255-2.284,10.776-3.036,16.142-1.418,3.119-22.43,49.548-26.194,70.493-2.182,12.145,19.548,35.546,39.083,53.78l-.901,32.07,16.638,.677c1.282-5.357,2.466-10.539,3.577-15.584,6.029,5.118,9.999,8.278,9.999,8.278l10.44-12.535Zm-51.677-63.914c-1.053-1.703,9.629-27.904,15.513-42.019l-2.485,53.669-.129,4.607c-7.017-8.688-12.329-15.338-12.898-16.258Z" style="fill:#0D3B66;"></path><path d="M182.716,414.789s-6.896-8.433-15.65-19.177c19.205-102.419,.565-130.349,.565-130.349l-.073-.002c.002-.052,.003-.115-.059-.159-4.279-10.263-34.391-3.633-34.391-3.633-1.219,4.255-2.284,10.776-3.036,16.142-1.418,3.119-22.43,49.548-26.194,70.493-2.182,12.145,19.548,35.546,39.083,53.78l-.901,32.07,16.638,.677c1.282-5.357,2.466-10.539,3.577-15.584,6.029,5.118,9.999,8.278,9.999,8.278l10.44-12.535Zm-51.677-63.914c-1.053-1.703,9.629-27.904,15.513-42.019l-2.485,53.669-.129,4.607c-7.017-8.688-12.329-15.338-12.898-16.258Z" style="fill:#fff; opacity:.6;"></path></g><g><polygon points="133.423 255.493 133.255 261.495 167.803 265.121 167.946 260.043 133.423 255.493" style="fill:#263238;"></polygon><path d="M148.699,264.1l-8.54-1.008,.792-6.715,8.54,1.008-.792,6.715Zm-7.43-1.883l6.554,.773,.558-4.73-6.554-.773-.558,4.73Z" style="fill:#fff;"></path></g><path d="M134.361,211.64c.893-7.125,5.785-7.566,5.785-7.566,0,0,3.98-.276,10.716-.087,5.21,.324,10.391,1.017,15.503,2.073,4.846,.948,9.617,2.243,14.276,3.877-.85,2.223-1.623,4.333-2.34,6.318-8.27,22.679-9.322,30.955-10.502,43.805l-34.539-3.963c-.7-24.432,.296-37.823,1.102-44.458Z" style="fill:#0D3B66;"></path><path d="M145.399,203.639c-4-.216-8.415-.64-10.331,.187h0c-4.143,.289-22.671,16.069-22.671,16.069l8.481-18.241-10.791-4.029s-17.431,26.34-14.036,36.225c2.597,7.561,24.425-2.688,34.554-7.929-.26,6.471-.131,15.65,.084,31.218l-3.52,27.023,2.979-6.636s6.39-41.03,6.136-49.921,9.115-23.966,9.115-23.966Z" style="fill:#263238;"></path><path d="M121.438,174.429c.554-.753,1.817-.707,1.846,.015,.029,.721,.191,3.008,.13,4.822-.026,.783-.007,1.874,.011,2.924,.017,.123,.035,.245,.034,.372l-.014,1.053c.004,.519,0,.977-.017,1.305l-.016,1.209c-.015,.722-.164,1.434-.441,2.101l-3.346,5.715-3.891-.066c-3.214-1.693-1.069-8.086-1.069-8.086l.575-3.662c.193-1.232,1.242-2.148,2.489-2.175l3.097-.002,.005-.049c.117-1.28,.054-4.722,.608-5.475Z" style="fill:#b97964;"></path><g><path d="M170.555,175.234c3.892,2.557,9.672,20.015,1.372,25.233-8.3,5.218-29.481,.085-31.085-7.802-.958-4.586,.731-9.322,4.374-12.267,0,0-1.133-17.327,8.254-18.655,9.386-1.327,14.897,5.954,14.897,5.954,0,0-1.703,4.98,2.189,7.537Z" style="fill:#263238;"></path><path d="M164.344,192.151l-5.18,.033-.004,.003-5.228,1.258c-.018,.07-.037,.141-.057,.22l-.436,7.275c-.254,2.142-2.969,3.441-4.484,4.127-.922,.475-3.595,5.964,1.001,11.238,1.354,1.564,4.189-.058,6.037-1.148,7.723-5.107,8.349-9.313,8.349-9.313-2.021-2.667-1.077-9.034,.002-13.693Z" style="fill:#b97964;"></path><path d="M170.517,182.617c-3.463,7.807-4.751,11.172-10.272,13.967-8.308,4.191-17.019-1.261-15.963-9.85,1.007-7.711,6.451-19.174,15.376-19.847,8.925-.673,14.32,7.912,10.86,15.73Z" style="fill:#b97964;"></path><path d="M161.539,179.446c-.108-.02-.204-.082-.261-.181-.884-1.545-2.434-1.563-2.452-1.563-.23-.002-.404-.185-.383-.414,.021-.229,.227-.413,.461-.413,.081,0,2.027,.021,3.124,1.939,.109,.191,.03,.447-.176,.572-.1,.06-.211,.078-.312,.06Z" style="fill:#263238;"></path><path d="M149.418,174.573c-.073-.052-.122-.134-.13-.235-.015-.208,.152-.415,.372-.464,2.207-.487,3.335,.728,3.382,.782,.133,.147,.098,.391-.079,.545-.176,.154-.426,.159-.559,.013-.043-.048-.934-.976-2.689-.588-.114,.025-.219,.003-.297-.053Z" style="fill:#263238;"></path><path d="M153.131,179.752s-2.263,2.673-4.32,4.145c-.359,.257-.36,.791-.014,1.053,.89,.675,2.18,.695,2.18,.695l2.155-5.893Z" style="fill:#a24e3f;"></path><path d="M158.709,180.271c.015-.008,.027-.007,.042-.016l-1.734-1.008s.25,.718,.741,1.029c-.343,.215-.666,.616-.854,1.121-.318,.852-.138,1.665,.403,1.816,.541,.151,1.238-.418,1.557-1.27,.262-.702,.182-1.371-.155-1.671Z" style="fill:#263238;"></path><path d="M150.572,177.804l.01-.004-1.734-1.008s.283,.807,.839,1.078c-.336,.208-.649,.591-.831,1.075-.31,.826-.124,1.617,.415,1.767,.539,.15,1.229-.397,1.539-1.222,.273-.727,.161-1.426-.238-1.685Z" style="fill:#263238;"></path><g><path d="M150.588,188.012c.347,.991,.606,2.818,.606,2.818,.171,.003,.342,.007,.514,.001,2.325-.011,3.414-.78,3.916-1.628,.273-.465,.365-.96,.387-1.364,.03-.466-.056-.804-.056-.804-1.242,.738-3.412,.914-4.574,.96-.486,.024-.793,.016-.793,.016Z" style="fill:#263238;"></path><path d="M151.381,187.995l.201,.826c2.189-.016,3.734-.319,4.429-.982,.03-.466-.056-.804-.056-.804-1.242,.738-3.412,.914-4.574,.96Z" style="fill:#fff;"></path><path d="M151.708,190.831c2.325-.011,3.414-.78,3.916-1.628-.792,.034-1.746,.163-2.588,.521-.645,.271-1.054,.687-1.327,1.107Z" style="fill:#fd504e;"></path></g><path d="M163.699,195.172c8.425-3.972,13.464-25.24,.055-28.489s-15.599,11.001-15.599,11.001c4.923-15.387,18.604-5.014,18.604-5.014-1.857,4.768-1.539,12.138-1.539,12.138,1.18,4.599-1.521,10.382-1.52,10.363Z" style="fill:#263238;"></path><path d="M170.405,166.86c8.461,4.804,5.119,10.5,5.119,10.5,0,0,5.499,10.69,3.275,17.472s-12.724,7.542-12.724,7.542c10.408-1.186,11.751-12.785,1.272-18.465-8.671-4.697-5.507-14.447-5.507-14.447,0,0,3.82-5.278,8.565-2.603Z" style="fill:#263238;"></path><path d="M161.551,178.969c-.102,0-.198-.063-.235-.165-2.795-7.712,1.239-10.568,1.412-10.686,.113-.078,.269-.049,.347,.065,.078,.114,.049,.269-.065,.347-.16,.11-3.879,2.777-1.224,10.104,.047,.129-.02,.273-.15,.32-.028,.01-.057,.015-.085,.015Z" style="fill:#263238;"></path><path d="M141.288,196.246c-.077,0-.153-.035-.202-.102-1.929-2.631-2.639-5.318-2.11-7.986,1.026-5.174,6.283-8.425,6.506-8.561,.119-.072,.272-.034,.343,.083,.072,.118,.035,.271-.083,.343-.053,.032-5.295,3.277-6.276,8.234-.5,2.524,.182,5.078,2.024,7.59,.082,.111,.058,.268-.054,.35-.044,.033-.096,.048-.148,.048Z" style="fill:#263238;"></path><g><path d="M170.773,188.267c-1.505,1.385-3.413,1.964-4.968,1.891-2.338-.11-2.337-3.923-.9-5.868,1.293-1.75,3.835-2.401,5.804-1.341,1.94,1.044,1.785,3.734,.064,5.317Z" style="fill:#b97964;"></path><path d="M166.34,186.704c-.031,0-.062-.006-.092-.018-.128-.051-.191-.196-.14-.325,.327-.822,.979-1.502,1.789-1.866,.812-.364,1.749-.396,2.573-.09,.129,.048,.195,.192,.147,.322-.049,.13-.194,.195-.322,.147-.702-.261-1.501-.233-2.193,.078-.693,.311-1.25,.893-1.529,1.595-.039,.098-.133,.158-.232,.158Z" style="opacity:.2;"></path></g></g><path d="M112.397,219.895s-.534,4.364-3.876,6.774c0,0,8.21-2.716,5.854-8.432l-1.978,1.658Z" style="isolation:isolate; opacity:.2;"></path><polygon points="111.145 198.02 114.476 192.568 119.94 193.407 118.057 200.6 111.145 198.02" style="fill:#b97964;"></polygon><g><path d="M212.546,219.68c-4.686-2.581-25.868-8.908-30.237-10.229-.776-.235-1.528-.401-2.242-.519-2.195-.718-4.614-1.289-7.326-1.67,0,0-7.114,12.38-7.76,25.288-.646,12.907,6.294,72.732,6.294,72.732l10.469-2.646s-6.203-37.182-1.694-75.974l19.499,1.74s-14.6,13.163-14.803,13.532l6.928,7.659s15.566-13.923,19.883-16.787c4.317-2.865,5.064-10.881,.989-13.125Z" style="fill:#263238;"></path><path d="M199.549,228.401s1.86-1.734,5.815-1.351c0,0-2.73-3.216-8.224,1.136l2.408,.215Z" style="isolation:isolate; opacity:.2;"></path></g><g><path d="M183.854,248.832s-2.757-.296-4.525,1.164c-1.768,1.459-2.072,4.51-2.699,6.1-.956,2.422,1.627,1.34,2.131,0,.712-1.893,.713-1.696,.713-1.696,.082,.949-3.367,8.378-3.104,9.68,.263,1.303,1.197,.276,1.197,.276,0,0-.789,1.827-.151,2.337,.166,.132,.766,.171,1.256-.605,1.102-1.746,3.228-5.53,3.228-5.53-.127,.215-2.416,5.072-2.664,5.844-.324,1.009,.038,1.651,.629,1.819,.842,.24,3.886-5.686,4.189-5.846,0,0-1.867,3.353-1.265,4.309,.602,.956,1.892-1.091,2.687-3.112,.728-1.852,1.526-5.346,2.084-7.301,.688-2.409,1.725-4.13-.065-5.652-1.79-1.521-3.641-1.787-3.641-1.787Z" style="fill:#b97964;"></path><path d="M182.006,249.331c.201-.134,4.283-5.755,4.283-5.755l5.153,5.755-3.614,2.61s-6.625-2.744-6.223-2.677" style="fill:#b97964;"></path></g></g></g></svg>
